<svg height="48px" width="48px" version="1.1" id="Layer_1" xmlns="http://www.w3.org/2000/svg" xmlns:xlink="http://www.w3.org/1999/xlink" viewBox="0 0 512 512" xml:space="preserve" fill="#000000"><g id="SVGRepo_bgCarrier" stroke-width="0"></g><g id="SVGRepo_tracerCarrier" stroke-linecap="round" stroke-linejoin="round"></g><g id="SVGRepo_iconCarrier"> <g transform="translate(1 1)"> <g> <path style="fill:#FCC309;" d="M406.467,388.547L365.507,248.6c-17.067,40.96-56.32,70.827-102.4,74.24l28.16,95.573 c2.56,9.387,15.36,9.387,18.773,0.853l16.213-41.813c4.267-11.093,17.92-15.36,27.307-7.68l39.253,28.16 C399.64,403.053,409.027,396.227,406.467,388.547"></path> <path style="fill:#FCC309;" d="M143.64,248.6l-40.96,139.947c-2.56,7.68,6.827,14.507,13.653,9.387l39.253-28.16 c9.387-6.827,23.04-2.56,27.307,7.68l16.213,41.813c3.413,8.533,16.213,8.533,18.773-0.853l29.013-95.573 C199.96,319.427,160.707,289.56,143.64,248.6"></path> </g> <path style="fill:#FFDD09;" d="M374.04,241.773c0-65.707-53.76-119.467-119.467-119.467h213.333l-34.133,51.2l-34.133,51.2 c-7.68,11.093-16.213,20.48-26.453,28.16C374.04,249.453,374.04,245.187,374.04,241.773"></path> <g> <path style="fill:#FD9808;" d="M399.64,224.707l34.133-51.2l34.133-51.2h34.133l-34.133,51.2l-34.133,51.2 c-15.36,23.04-37.547,40.107-64,46.933c1.707-5.973,2.56-12.8,3.413-18.773C383.427,245.187,391.96,235.8,399.64,224.707"></path> <path style="fill:#FD9808;" d="M254.573,83.907c52.053,0,93.867,53.76,93.867,119.467S306.627,322.84,254.573,322.84 c65.707,0,119.467-53.76,119.467-119.467S320.28,83.907,254.573,83.907"></path> </g> <g> <path style="fill:#FFDD09;" d="M348.44,203.373c0-65.707-41.813-119.467-93.867-119.467s-93.867,53.76-93.867,119.467 S202.52,322.84,254.573,322.84S348.44,269.933,348.44,203.373"></path> <path style="fill:#FFDD09;" d="M135.107,241.773c0-65.707,53.76-119.467,119.467-119.467H41.24l34.133,51.2l34.133,51.2 c7.68,11.093,16.213,20.48,26.453,28.16C135.107,249.453,135.107,245.187,135.107,241.773"></path> </g> <path style="fill:#FFFFFF;" d="M109.507,224.707l-34.133-51.2l-34.133-51.2H7.107l34.133,51.2l34.133,51.2 c15.36,23.04,37.547,40.107,64,46.933c-1.707-5.973-2.56-12.8-3.413-18.773C125.72,245.187,117.187,235.8,109.507,224.707"></path> <polygon style="fill:#54C9FD;" points="254.573,126.573 280.173,160.707 322.84,160.707 299.8,205.933 322.84,246.04 280.173,246.04 254.573,280.173 228.973,246.04 186.307,246.04 209.347,205.933 186.307,160.707 228.973,160.707 "></polygon> <path style="fill:#FFFFFF;" d="M160.707,203.373c0-65.707,41.813-119.467,93.867-119.467c-65.707,0-119.467,53.76-119.467,119.467 s53.76,119.467,119.467,119.467C202.52,322.84,160.707,269.933,160.707,203.373"></path> <g> <path style="fill:#110E0E;" d="M254.573,331.373c-70.827,0-128-57.173-128-128s57.173-128,128-128s128,57.173,128,128 S325.4,331.373,254.573,331.373z M254.573,92.44c-61.44,0-110.933,49.493-110.933,110.933s49.493,110.933,110.933,110.933 s110.933-49.493,110.933-110.933C365.507,142.787,316.013,92.44,254.573,92.44z"></path> <path style="fill:#110E0E;" d="M137.667,186.307H41.24c-2.56,0-5.12-1.707-6.827-3.413l-34.133-51.2 c-1.707-2.56-1.707-5.973,0-8.533c0.853-3.413,3.413-5.12,6.827-5.12H41.24c5.12,0,8.533,3.413,8.533,8.533 s-3.413,8.533-8.533,8.533H23.32l23.04,34.133h85.333c3.413-11.947,8.533-23.893,15.36-34.133h-37.547 c-5.12,0-8.533-3.413-8.533-8.533s3.413-8.533,8.533-8.533h53.76c3.413,0,5.973,1.707,7.68,5.12 c1.707,3.413,0.853,6.827-1.707,9.387c-11.093,13.653-19.627,29.867-23.04,47.787 C145.347,183.747,141.933,186.307,137.667,186.307z"></path> <path style="fill:#110E0E;" d="M467.907,186.307H371.48c-4.267,0-7.68-2.56-8.533-6.827c-3.413-17.067-11.947-34.133-23.04-47.787 c-1.707-2.56-2.56-5.973-0.853-9.387c0.853-1.707,3.413-4.267,6.827-4.267h156.16c3.413,0,5.973,1.707,7.68,4.267 c1.707,2.56,1.707,5.973,0,8.533l-34.133,51.2C473.027,185.453,470.467,186.307,467.907,186.307z M378.307,169.24h85.333 l23.04-34.133H362.947C369.773,146.2,374.893,157.293,378.307,169.24z"></path> <path style="fill:#110E0E;" d="M137.667,237.507H75.373c-2.56,0-5.12-1.707-6.827-3.413l-34.133-51.2 c-1.707-2.56-1.707-5.973,0-8.533c0.853-3.413,3.413-5.12,6.827-5.12h96.427c2.56,0,5.12,0.853,6.827,3.413 c1.707,1.707,2.56,4.267,1.707,6.827c-1.707,8.533-2.56,16.213-2.56,23.893c0,7.68,0.853,16.213,2.56,23.893 c0.853,2.56,0,5.12-1.707,6.827C142.787,236.653,140.227,237.507,137.667,237.507z M79.64,220.44h47.787 c-0.853-5.12-0.853-11.093-0.853-17.067c0-5.973,0-11.093,0.853-17.067H57.453L79.64,220.44z"></path> <path style="fill:#110E0E;" d="M433.773,237.507H371.48c-2.56,0-5.12-0.853-6.827-3.413c-1.707-1.707-2.56-4.267-1.707-6.827 c1.707-7.68,2.56-15.36,2.56-23.893c0-7.68-0.853-16.213-2.56-23.893c-0.853-2.56,0-5.12,1.707-6.827 c1.707-1.707,4.267-3.413,6.827-3.413h96.427c3.413,0,5.973,1.707,7.68,4.267c1.707,2.56,1.707,5.973,0,8.533l-34.133,51.2 C438.893,236.653,436.333,237.507,433.773,237.507z M381.72,220.44h47.787l23.04-34.133H381.72 c0.853,5.973,0.853,11.093,0.853,17.067C382.573,209.347,382.573,215.32,381.72,220.44z"></path> <path style="fill:#110E0E;" d="M254.573,288.707c-2.56,0-5.12-0.853-6.827-3.413l-23.04-30.72h-38.4 c-3.413,0-5.973-1.707-7.68-4.267c-1.707-2.56-1.707-5.973,0-8.533l20.48-36.693l-20.48-40.107c-1.707-2.56-0.853-5.973,0-8.533 c1.707-2.56,5.12-4.267,7.68-4.267h38.4l23.04-30.72c1.707-1.707,4.267-3.413,6.827-3.413l0,0c2.56,0,5.12,0.853,6.827,3.413 l23.04,30.72h38.4c2.56,0,5.973,1.707,7.68,4.267c1.707,2.56,1.707,5.973,0,8.533l-20.48,40.107l20.48,36.693 c1.707,2.56,1.707,5.973,0,8.533c-1.707,2.56-4.267,4.267-7.68,4.267h-38.4l-23.04,30.72 C259.693,287.853,257.133,288.707,254.573,288.707z M200.813,237.507h28.16c2.56,0,5.12,0.853,6.827,3.413l18.773,24.747 l18.773-24.747c1.707-2.56,4.267-3.413,6.827-3.413h28.16l-16.213-28.16c-1.707-2.56-1.707-5.12,0-7.68l16.213-32.427h-28.16 c-2.56,0-5.12-0.853-6.827-3.413l-18.773-24.747L235.8,165.827c-1.707,2.56-4.267,3.413-6.827,3.413H199.96l16.213,32.427 c1.707,2.56,0.853,5.12,0,7.68L200.813,237.507z"></path> </g> <path d="M300.653,434.627L300.653,434.627c-8.533,0-15.36-5.973-17.92-13.653l-28.16-95.573c-0.853-2.56,0-5.12,0.853-7.68 c1.707-1.707,4.267-3.413,6.827-3.413c41.813-2.56,79.36-29.867,95.573-69.12c1.707-3.413,4.267-5.973,8.533-5.12 c3.413,0,6.827,2.56,7.68,5.973L415,385.987c1.707,6.827-0.853,14.507-6.827,18.773c-5.973,4.267-13.653,4.267-20.48,0 L348.44,376.6c-2.56-1.707-5.12-2.56-8.533-1.707c-2.56,0.853-5.12,2.56-5.973,5.973L317.72,422.68 C314.307,429.507,308.333,434.627,300.653,434.627z M273.347,330.52l25.6,86.187c0,0,0,0.853,1.707,0.853 c0.853,0,1.707-0.853,1.707-0.853l16.213-41.813c3.413-7.68,9.387-13.653,17.067-15.36c7.68-2.56,16.213-0.853,23.04,4.267 l39.253,28.16l0,0l-34.987-119.467C343.32,303.213,310.893,324.547,273.347,330.52z"></path> <path d="M208.493,434.627c-7.68,0-14.507-4.267-17.067-11.947l-16.213-41.813c-0.853-2.56-3.413-5.12-5.973-5.973 c-2.56-0.853-5.973,0-8.533,1.707l-39.253,28.16c-5.973,4.267-13.653,4.267-20.48,0c-5.973-4.267-8.533-11.947-6.827-18.773 L135.96,246.04c0.853-3.413,4.267-5.973,7.68-5.973c3.413,0,6.827,1.707,8.533,5.12c16.213,39.253,52.907,65.707,95.573,69.12 c2.56,0,5.12,1.707,6.827,3.413c1.707,1.707,1.707,5.12,0.853,7.68l-28.16,95.573c-2.56,7.68-8.533,12.8-17.067,13.653 C209.347,434.627,209.347,434.627,208.493,434.627z M165.827,357.827c2.56,0,5.12,0,7.68,0.853 c7.68,2.56,14.507,7.68,17.067,16.213l16.213,41.813c0,0,0,0.853,1.707,0.853c0.853,0,0.853-0.853,1.707-0.853l25.6-86.187 c-36.693-5.973-69.973-27.307-89.6-58.88l-34.987,119.467l39.253-28.16C155.587,359.533,160.707,357.827,165.827,357.827z"></path> <g> <path style="fill:#110E0E;" d="M135.96,283.587c-0.853,0-1.707,0-2.56,0c-26.453-8.533-49.493-26.453-64.853-49.493 c-1.707-2.56-2.56-5.12-0.853-7.68c1.707-4.267,4.267-5.973,7.68-5.973h62.293c3.413,0,6.827,2.56,8.533,5.973l5.973,19.627 c0.853,1.707,0.853,3.413,0,5.12l-7.68,26.453c-0.853,2.56-2.56,4.267-4.267,5.12C139.373,282.733,137.667,283.587,135.96,283.587 z M93.293,237.507c10.24,11.093,23.04,20.48,37.547,25.6l4.267-15.36l-3.413-10.24H93.293z"></path> <path style="fill:#110E0E;" d="M373.187,283.587c-1.707,0-2.56,0-4.267-0.853c-1.707-0.853-3.413-2.56-4.267-5.12l-7.68-26.453 c0-1.707,0-3.413,0-5.12l5.973-19.627c0.853-3.413,4.267-5.973,8.533-5.973h62.293c3.413,0,5.973,1.707,7.68,4.267 s1.707,5.973,0,8.533c-15.36,23.04-38.4,40.107-65.707,48.64C374.893,283.587,374.04,283.587,373.187,283.587z M374.04,248.6 l4.267,15.36c14.507-5.973,27.307-14.507,37.547-25.6h-38.4L374.04,248.6z"></path> <path style="fill:#110E0E;" d="M83.907,126.573c0-5.12-3.413-8.533-8.533-8.533s-8.533,4.267-8.533,8.533s3.413,8.533,8.533,8.533 S83.907,131.693,83.907,126.573"></path> </g> </g> </g></svg>